# xmcd
# 
# Track frame offsets:
#     150
#     21073
#     47725
#     60802
#     68336
#     90546
#     109445
#     118850
#     130798
#     141029
#     152280
#     165342
#     208911
#     222621
#     233833
# 
# Disc length: 3253
# 
# Revision: 0
# Processed by: cddbd v1.5.2PL0 Copyright (c) Steve Scherf et al.
# Submitted via: fre:ac v1.0.17
# 
DISCID=c60cb30f
DTITLE=Blind Lemming Chiffon - Random Acts Of Blindness
DYEAR=0
DGENRE=Blues
TTITLE0=Both Sides Now
TTITLE1=Jack And Jill
TTITLE2=Wildwood Flower
TTITLE3=Shaggy Dog
TTITLE4=Sweet Betsy From Pike
TTITLE5=The Water Is Wide
TTITLE6=Anna
TTITLE7=Cotton Eyed Joe
TTITLE8=The Little Bagel Man
TTITLE9=Over The Easy Side Of Life
TTITLE10=Sail Away Ladies
TTITLE11=Crucifixion
TTITLE12=Solidarity Forever
TTITLE13=Black Eyed Susie
TTITLE14=St. Anne's Woodpecker Hornpipe
EXTD=
EXTT0=
EXTT1=
EXTT2=
EXTT3=
EXTT4=
EXTT5=
EXTT6=
EXTT7=
EXTT8=
EXTT9=
EXTT10=
EXTT11=
EXTT12=
EXTT13=
EXTT14=
PLAYORDER=
